999
"DXF R12 Output" (www.mydxf.blogspot.com)
 0 
SECTION
 2 
HEADER
 9 
$ACADVER
 1 
AC1009
 9 
$EXTMIN
 10 
 0 
 20 
 0 
 9 
$EXTMAX
 10 
 8.5 
 20 
 11 
 0 
ENDSEC
 0 
SECTION
 2 
ENTITIES
0
LINE
8
Layer 1
10
39.687500
20
105.834000
11
39.784904
21
109.454470
0
LINE
8
Layer 1
10
39.784904
20
109.454470
11
40.073777
21
113.024043
0
LINE
8
Layer 1
10
40.073777
20
113.024043
11
40.549111
21
116.537711
0
LINE
8
Layer 1
10
40.549111
20
116.537711
11
41.205900
21
119.990469
0
LINE
8
Layer 1
10
41.205900
20
119.990469
11
42.039136
21
123.377308
0
LINE
8
Layer 1
10
42.039136
20
123.377308
11
43.043811
21
126.693223
0
LINE
8
Layer 1
10
43.043811
20
126.693223
11
44.214918
21
129.933206
0
LINE
8
Layer 1
10
44.214918
20
129.933206
11
45.547450
21
133.092250
0
LINE
8
Layer 1
10
45.547450
20
133.092250
11
47.036399
21
136.165349
0
LINE
8
Layer 1
10
47.036399
20
136.165349
11
48.676758
21
139.147496
0
LINE
8
Layer 1
10
48.676758
20
139.147496
11
50.463519
21
142.033684
0
LINE
8
Layer 1
10
50.463519
20
142.033684
11
52.391675
21
144.818906
0
LINE
8
Layer 1
10
52.391675
20
144.818906
11
54.456219
21
147.498156
0
LINE
8
Layer 1
10
54.456219
20
147.498156
11
56.652142
21
150.066426
0
LINE
8
Layer 1
10
56.652142
20
150.066426
11
58.974438
21
152.518709
0
LINE
8
Layer 1
10
58.974438
20
152.518709
11
61.418100
21
154.850000
0
LINE
8
Layer 1
10
61.418100
20
154.850000
11
60.605758
21
151.808562
0
LINE
8
Layer 1
10
60.605758
20
151.808562
11
60.014637
21
148.682750
0
LINE
8
Layer 1
10
60.014637
20
148.682750
11
59.653523
21
145.481562
0
LINE
8
Layer 1
10
59.653523
20
145.481562
11
59.531200
21
142.214000
0
LINE
8
Layer 1
10
59.531200
20
142.214000
11
59.753177
21
137.817927
0
LINE
8
Layer 1
10
59.753177
20
137.817927
11
60.404700
21
133.548864
0
LINE
8
Layer 1
10
60.404700
20
133.548864
11
61.464159
21
129.428419
0
LINE
8
Layer 1
10
61.464159
20
129.428419
11
62.909941
21
125.478203
0
LINE
8
Layer 1
10
62.909941
20
125.478203
11
64.720435
21
121.719824
0
LINE
8
Layer 1
10
64.720435
20
121.719824
11
66.874029
21
118.174891
0
LINE
8
Layer 1
10
66.874029
20
118.174891
11
69.349113
21
114.865013
0
LINE
8
Layer 1
10
69.349113
20
114.865013
11
72.124075
21
111.811800
0
LINE
8
Layer 1
10
72.124075
20
111.811800
11
75.177303
21
109.036860
0
LINE
8
Layer 1
10
75.177303
20
109.036860
11
78.487186
21
106.561803
0
LINE
8
Layer 1
10
78.487186
20
106.561803
11
82.032113
21
104.408237
0
LINE
8
Layer 1
10
82.032113
20
104.408237
11
85.790472
21
102.597772
0
LINE
8
Layer 1
10
85.790472
20
102.597772
11
89.740651
21
101.152017
0
LINE
8
Layer 1
10
89.740651
20
101.152017
11
93.861040
21
100.092580
0
LINE
8
Layer 1
10
93.861040
20
100.092580
11
98.130027
21
99.441072
0
LINE
8
Layer 1
10
98.130027
20
99.441072
11
102.526000
21
99.219100
0
LINE
8
Layer 1
10
102.526000
20
99.219100
11
105.569350
21
99.065428
0
LINE
8
Layer 1
10
105.569350
20
99.065428
11
108.524799
21
98.614386
0
LINE
8
Layer 1
10
108.524799
20
98.614386
11
111.377384
21
97.880933
0
LINE
8
Layer 1
10
111.377384
20
97.880933
11
114.112141
21
96.880030
0
LINE
8
Layer 1
10
114.112141
20
96.880030
11
116.714107
21
95.626636
0
LINE
8
Layer 1
10
116.714107
20
95.626636
11
119.168318
21
94.135712
0
LINE
8
Layer 1
10
119.168318
20
94.135712
11
121.459812
21
92.422217
0
LINE
8
Layer 1
10
121.459812
20
92.422217
11
123.573625
21
90.501113
0
LINE
8
Layer 1
10
123.573625
20
90.501113
11
125.494793
21
88.387357
0
LINE
8
Layer 1
10
125.494793
20
88.387357
11
127.208354
21
86.095912
0
LINE
8
Layer 1
10
127.208354
20
86.095912
11
128.699343
21
83.641735
0
LINE
8
Layer 1
10
128.699343
20
83.641735
11
129.952797
21
81.039789
0
LINE
8
Layer 1
10
129.952797
20
81.039789
11
130.953753
21
78.305032
0
LINE
8
Layer 1
10
130.953753
20
78.305032
11
131.687248
21
75.452425
0
LINE
8
Layer 1
10
131.687248
20
75.452425
11
132.138318
21
72.496928
0
LINE
8
Layer 1
10
132.138318
20
72.496928
11
132.292000
21
69.453500
0
LINE
8
Layer 1
10
132.292000
20
69.453500
11
132.146453
21
66.491441
0
LINE
8
Layer 1
10
132.146453
20
66.491441
11
131.719002
21
63.612201
0
LINE
8
Layer 1
10
131.719002
20
63.612201
11
131.023428
21
60.829564
0
LINE
8
Layer 1
10
131.023428
20
60.829564
11
130.073516
21
58.157311
0
LINE
8
Layer 1
10
130.073516
20
58.157311
11
128.883046
21
55.609224
0
LINE
8
Layer 1
10
128.883046
20
55.609224
11
127.465803
21
53.199087
0
LINE
8
Layer 1
10
127.465803
20
53.199087
11
125.835568
21
50.940680
0
LINE
8
Layer 1
10
125.835568
20
50.940680
11
124.006125
21
48.847787
0
LINE
8
Layer 1
10
124.006125
20
48.847787
11
121.991256
21
46.934190
0
LINE
8
Layer 1
10
121.991256
20
46.934190
11
119.804744
21
45.213671
0
LINE
8
Layer 1
10
119.804744
20
45.213671
11
117.460372
21
43.700012
0
LINE
8
Layer 1
10
117.460372
20
43.700012
11
114.971922
21
42.406995
0
LINE
8
Layer 1
10
114.971922
20
42.406995
11
112.353177
21
41.348404
0
LINE
8
Layer 1
10
112.353177
20
41.348404
11
109.617920
21
40.538019
0
LINE
8
Layer 1
10
109.617920
20
40.538019
11
106.779933
21
39.989624
0
LINE
8
Layer 1
10
106.779933
20
39.989624
11
103.853000
21
39.717000
0
LINE
8
Layer 1
10
103.853000
20
39.717000
11
100.535437
21
39.896974
0
LINE
8
Layer 1
10
100.535437
20
39.896974
11
97.263204
21
40.237981
0
LINE
8
Layer 1
10
97.263204
20
40.237981
11
94.040233
21
40.736086
0
LINE
8
Layer 1
10
94.040233
20
40.736086
11
90.870460
21
41.387354
0
LINE
8
Layer 1
10
90.870460
20
41.387354
11
87.757817
21
42.187852
0
LINE
8
Layer 1
10
87.757817
20
42.187852
11
84.706241
21
43.133645
0
LINE
8
Layer 1
10
84.706241
20
43.133645
11
81.719664
21
44.220798
0
LINE
8
Layer 1
10
81.719664
20
44.220798
11
78.802020
21
45.445378
0
LINE
8
Layer 1
10
78.802020
20
45.445378
11
75.957245
21
46.803450
0
LINE
8
Layer 1
10
75.957245
20
46.803450
11
73.189272
21
48.291080
0
LINE
8
Layer 1
10
73.189272
20
48.291080
11
67.899468
21
51.639275
0
LINE
8
Layer 1
10
67.899468
20
51.639275
11
62.964082
21
55.458490
0
LINE
8
Layer 1
10
62.964082
20
55.458490
11
58.414587
21
59.717250
0
LINE
8
Layer 1
10
58.414587
20
59.717250
11
54.282457
21
64.384080
0
LINE
8
Layer 1
10
54.282457
20
64.384080
11
50.599165
21
69.427506
0
LINE
8
Layer 1
10
50.599165
20
69.427506
11
47.396183
21
74.816053
0
LINE
8
Layer 1
10
47.396183
20
74.816053
11
45.984645
21
77.629911
0
LINE
8
Layer 1
10
45.984645
20
77.629911
11
44.704986
21
80.518247
0
LINE
8
Layer 1
10
44.704986
20
80.518247
11
43.561142
21
83.477126
0
LINE
8
Layer 1
10
43.561142
20
83.477126
11
42.557046
21
86.502613
0
LINE
8
Layer 1
10
42.557046
20
86.502613
11
41.696632
21
89.590775
0
LINE
8
Layer 1
10
41.696632
20
89.590775
11
40.983836
21
92.737677
0
LINE
8
Layer 1
10
40.983836
20
92.737677
11
40.422590
21
95.939385
0
LINE
8
Layer 1
10
40.422590
20
95.939385
11
40.016829
21
99.191964
0
LINE
8
Layer 1
10
40.016829
20
99.191964
11
39.770488
21
102.491481
0
LINE
8
Layer 1
10
39.770488
20
102.491481
11
39.687500
21
105.834000
0
LINE
8
Layer 1
10
39.687500
20
105.834000
11
39.687500
21
105.834000
0
LINE
8
Layer 1
10
26.458300
20
105.834000
11
26.542738
21
109.528083
0
LINE
8
Layer 1
10
26.542738
20
109.528083
11
26.793598
21
113.178750
0
LINE
8
Layer 1
10
26.793598
20
113.178750
11
27.207198
21
116.782321
0
LINE
8
Layer 1
10
27.207198
20
116.782321
11
27.779854
21
120.335113
0
LINE
8
Layer 1
10
27.779854
20
120.335113
11
28.507886
21
123.833444
0
LINE
8
Layer 1
10
28.507886
20
123.833444
11
29.387609
21
127.273630
0
LINE
8
Layer 1
10
29.387609
20
127.273630
11
30.415343
21
130.651991
0
LINE
8
Layer 1
10
30.415343
20
130.651991
11
31.587405
21
133.964844
0
LINE
8
Layer 1
10
31.587405
20
133.964844
11
32.900111
21
137.208506
0
LINE
8
Layer 1
10
32.900111
20
137.208506
11
34.349781
21
140.379295
0
LINE
8
Layer 1
10
34.349781
20
140.379295
11
35.932732
21
143.473530
0
LINE
8
Layer 1
10
35.932732
20
143.473530
11
37.645281
21
146.487527
0
LINE
8
Layer 1
10
37.645281
20
146.487527
11
39.483745
21
149.417605
0
LINE
8
Layer 1
10
39.483745
20
149.417605
11
41.444444
21
152.260082
0
LINE
8
Layer 1
10
41.444444
20
152.260082
11
45.717813
21
157.667500
0
LINE
8
Layer 1
10
45.717813
20
157.667500
11
50.435928
21
162.680325
0
LINE
8
Layer 1
10
50.435928
20
162.680325
11
55.569330
21
167.269098
0
LINE
8
Layer 1
10
55.569330
20
167.269098
11
61.088562
21
171.404361
0
LINE
8
Layer 1
10
61.088562
20
171.404361
11
63.983658
21
173.292721
0
LINE
8
Layer 1
10
63.983658
20
173.292721
11
66.964164
21
175.056656
0
LINE
8
Layer 1
10
66.964164
20
175.056656
11
70.026398
21
176.692485
0
LINE
8
Layer 1
10
70.026398
20
176.692485
11
73.166678
21
178.196526
0
LINE
8
Layer 1
10
73.166678
20
178.196526
11
76.381320
21
179.565095
0
LINE
8
Layer 1
10
76.381320
20
179.565095
11
79.666644
21
180.794512
0
LINE
8
Layer 1
10
79.666644
20
180.794512
11
83.018966
21
181.881093
0
LINE
8
Layer 1
10
83.018966
20
181.881093
11
86.434604
21
182.821156
0
LINE
8
Layer 1
10
86.434604
20
182.821156
11
89.909876
21
183.611019
0
LINE
8
Layer 1
10
89.909876
20
183.611019
11
93.441100
21
184.247000
0
LINE
8
Layer 1
10
93.441100
20
184.247000
11
97.912750
21
184.964250
0
LINE
8
Layer 1
10
97.912750
20
184.964250
11
102.526000
21
185.209000
0
LINE
8
Layer 1
10
102.526000
20
185.209000
11
102.526000
21
185.141000
0
LINE
8
Layer 1
10
102.526000
20
185.141000
11
105.833000
21
185.209000
0
LINE
8
Layer 1
10
105.833000
20
185.209000
11
109.917662
21
185.105716
0
LINE
8
Layer 1
10
109.917662
20
185.105716
11
113.948698
21
184.799189
0
LINE
8
Layer 1
10
113.948698
20
184.799189
11
117.921122
21
184.294407
0
LINE
8
Layer 1
10
117.921122
20
184.294407
11
121.829945
21
183.596357
0
LINE
8
Layer 1
10
121.829945
20
183.596357
11
125.670182
21
182.710028
0
LINE
8
Layer 1
10
125.670182
20
182.710028
11
129.436845
21
181.640406
0
LINE
8
Layer 1
10
129.436845
20
181.640406
11
133.124946
21
180.392479
0
LINE
8
Layer 1
10
133.124946
20
180.392479
11
136.729500
21
178.971234
0
LINE
8
Layer 1
10
136.729500
20
178.971234
11
140.245518
21
177.381661
0
LINE
8
Layer 1
10
140.245518
20
177.381661
11
143.668015
21
175.628745
0
LINE
8
Layer 1
10
143.668015
20
175.628745
11
146.992002
21
173.717475
0
LINE
8
Layer 1
10
146.992002
20
173.717475
11
150.212492
21
171.652838
0
LINE
8
Layer 1
10
150.212492
20
171.652838
11
153.324499
21
169.439822
0
LINE
8
Layer 1
10
153.324499
20
169.439822
11
156.323036
21
167.083414
0
LINE
8
Layer 1
10
156.323036
20
167.083414
11
159.203115
21
164.588603
0
LINE
8
Layer 1
10
159.203115
20
164.588603
11
161.959750
21
161.960375
0
LINE
8
Layer 1
10
161.959750
20
161.960375
11
164.587953
21
159.203718
0
LINE
8
Layer 1
10
164.587953
20
159.203718
11
167.082737
21
156.323621
0
LINE
8
Layer 1
10
167.082737
20
156.323621
11
169.439116
21
153.325070
0
LINE
8
Layer 1
10
169.439116
20
153.325070
11
171.652102
21
150.213053
0
LINE
8
Layer 1
10
171.652102
20
150.213053
11
173.716707
21
146.992557
0
LINE
8
Layer 1
10
173.716707
20
146.992557
11
175.627946
21
143.668572
0
LINE
8
Layer 1
10
175.627946
20
143.668572
11
177.380831
21
140.246083
0
LINE
8
Layer 1
10
177.380831
20
140.246083
11
178.970375
21
136.730078
0
LINE
8
Layer 1
10
178.970375
20
136.730078
11
180.391591
21
133.125546
0
LINE
8
Layer 1
10
180.391591
20
133.125546
11
181.639491
21
129.437473
0
LINE
8
Layer 1
10
181.639491
20
129.437473
11
182.709089
21
125.670848
0
LINE
8
Layer 1
10
182.709089
20
125.670848
11
183.595398
21
121.830658
0
LINE
8
Layer 1
10
183.595398
20
121.830658
11
184.293431
21
117.921891
0
LINE
8
Layer 1
10
184.293431
20
117.921891
11
184.798200
21
113.949533
0
LINE
8
Layer 1
10
184.798200
20
113.949533
11
185.104719
21
109.918574
0
LINE
8
Layer 1
10
185.104719
20
109.918574
11
185.208000
21
105.834000
0
LINE
8
Layer 1
10
185.208000
20
105.834000
11
185.104719
21
101.749320
0
LINE
8
Layer 1
10
185.104719
20
101.749320
11
184.798200
21
97.718267
0
LINE
8
Layer 1
10
184.798200
20
97.718267
11
184.293431
21
93.745827
0
LINE
8
Layer 1
10
184.293431
20
93.745827
11
183.595398
21
89.836989
0
LINE
8
Layer 1
10
183.595398
20
89.836989
11
182.709089
21
85.996738
0
LINE
8
Layer 1
10
182.709089
20
85.996738
11
181.639491
21
82.230063
0
LINE
8
Layer 1
10
181.639491
20
82.230063
11
180.391591
21
78.541949
0
LINE
8
Layer 1
10
180.391591
20
78.541949
11
178.970375
21
74.937384
0
LINE
8
Layer 1
10
178.970375
20
74.937384
11
177.380831
21
71.421356
0
LINE
8
Layer 1
10
177.380831
20
71.421356
11
175.627946
21
67.998850
0
LINE
8
Layer 1
10
175.627946
20
67.998850
11
173.716707
21
64.674855
0
LINE
8
Layer 1
10
173.716707
20
64.674855
11
171.652102
21
61.454357
0
LINE
8
Layer 1
10
171.652102
20
61.454357
11
169.439116
21
58.342342
0
LINE
8
Layer 1
10
169.439116
20
58.342342
11
167.082737
21
55.343799
0
LINE
8
Layer 1
10
167.082737
20
55.343799
11
164.587953
21
52.463715
0
LINE
8
Layer 1
10
164.587953
20
52.463715
11
161.959750
21
49.707075
0
LINE
8
Layer 1
10
161.959750
20
49.707075
11
159.203115
21
47.078868
0
LINE
8
Layer 1
10
159.203115
20
47.078868
11
156.323036
21
44.584079
0
LINE
8
Layer 1
10
156.323036
20
44.584079
11
153.324499
21
42.227698
0
LINE
8
Layer 1
10
153.324499
20
42.227698
11
150.212492
21
40.014709
0
LINE
8
Layer 1
10
150.212492
20
40.014709
11
146.992002
21
37.950101
0
LINE
8
Layer 1
10
146.992002
20
37.950101
11
143.668015
21
36.038860
0
LINE
8
Layer 1
10
143.668015
20
36.038860
11
140.245518
21
34.285973
0
LINE
8
Layer 1
10
140.245518
20
34.285973
11
136.729500
21
32.696428
0
LINE
8
Layer 1
10
136.729500
20
32.696428
11
133.124946
21
31.275211
0
LINE
8
Layer 1
10
133.124946
20
31.275211
11
129.436845
21
30.027310
0
LINE
8
Layer 1
10
129.436845
20
30.027310
11
125.670182
21
28.957711
0
LINE
8
Layer 1
10
125.670182
20
28.957711
11
121.829945
21
28.071402
0
LINE
8
Layer 1
10
121.829945
20
28.071402
11
117.921122
21
27.373369
0
LINE
8
Layer 1
10
117.921122
20
27.373369
11
113.948698
21
26.868600
0
LINE
8
Layer 1
10
113.948698
20
26.868600
11
109.917662
21
26.562081
0
LINE
8
Layer 1
10
109.917662
20
26.562081
11
105.833000
21
26.458800
0
LINE
8
Layer 1
10
105.833000
20
26.458800
11
103.928000
21
26.480800
0
LINE
8
Layer 1
10
103.928000
20
26.480800
11
102.526000
21
26.458800
0
LINE
8
Layer 1
10
102.526000
20
26.458800
11
102.526000
21
26.526700
0
LINE
8
Layer 1
10
102.526000
20
26.526700
11
98.585799
21
26.785485
0
LINE
8
Layer 1
10
98.585799
20
26.785485
11
94.700256
21
27.233655
0
LINE
8
Layer 1
10
94.700256
20
27.233655
11
90.873990
21
27.866590
0
LINE
8
Layer 1
10
90.873990
20
27.866590
11
87.111620
21
28.679673
0
LINE
8
Layer 1
10
87.111620
20
28.679673
11
83.417763
21
29.668285
0
LINE
8
Layer 1
10
83.417763
20
29.668285
11
79.797039
21
30.827806
0
LINE
8
Layer 1
10
79.797039
20
30.827806
11
76.254067
21
32.153619
0
LINE
8
Layer 1
10
76.254067
20
32.153619
11
72.793464
21
33.641105
0
LINE
8
Layer 1
10
72.793464
20
33.641105
11
69.419850
21
35.285644
0
LINE
8
Layer 1
10
69.419850
20
35.285644
11
66.137842
21
37.082619
0
LINE
8
Layer 1
10
66.137842
20
37.082619
11
62.952061
21
39.027410
0
LINE
8
Layer 1
10
62.952061
20
39.027410
11
59.867123
21
41.115399
0
LINE
8
Layer 1
10
59.867123
20
41.115399
11
56.887649
21
43.341968
0
LINE
8
Layer 1
10
56.887649
20
43.341968
11
54.018255
21
45.702497
0
LINE
8
Layer 1
10
54.018255
20
45.702497
11
51.263562
21
48.192368
0
LINE
8
Layer 1
10
51.263562
20
48.192368
11
48.628187
21
50.806963
0
LINE
8
Layer 1
10
48.628187
20
50.806963
11
46.116750
21
53.541661
0
LINE
8
Layer 1
10
46.116750
20
53.541661
11
43.733868
21
56.391846
0
LINE
8
Layer 1
10
43.733868
20
56.391846
11
41.484161
21
59.352898
0
LINE
8
Layer 1
10
41.484161
20
59.352898
11
39.372247
21
62.420199
0
LINE
8
Layer 1
10
39.372247
20
62.420199
11
37.402744
21
65.589130
0
LINE
8
Layer 1
10
37.402744
20
65.589130
11
35.580272
21
68.855071
0
LINE
8
Layer 1
10
35.580272
20
68.855071
11
33.909448
21
72.213406
0
LINE
8
Layer 1
10
33.909448
20
72.213406
11
32.394892
21
75.659514
0
LINE
8
Layer 1
10
32.394892
20
75.659514
11
31.041222
21
79.188778
0
LINE
8
Layer 1
10
31.041222
20
79.188778
11
29.853056
21
82.796578
0
LINE
8
Layer 1
10
29.853056
20
82.796578
11
28.835014
21
86.478296
0
LINE
8
Layer 1
10
28.835014
20
86.478296
11
27.991713
21
90.229313
0
LINE
8
Layer 1
10
27.991713
20
90.229313
11
27.327773
21
94.045010
0
LINE
8
Layer 1
10
27.327773
20
94.045010
11
26.847811
21
97.920770
0
LINE
8
Layer 1
10
26.847811
20
97.920770
11
26.556448
21
101.851973
0
LINE
8
Layer 1
10
26.556448
20
101.851973
11
26.458300
21
105.834000
0
LINE
8
Layer 1
10
26.458300
20
105.834000
11
26.458300
21
105.834000
0
LINE
8
Layer 1
10
72.760400
20
142.214000
11
72.874648
21
144.839985
0
LINE
8
Layer 1
10
72.874648
20
144.839985
11
73.211019
21
147.402314
0
LINE
8
Layer 1
10
73.211019
20
147.402314
11
73.759954
21
149.891428
0
LINE
8
Layer 1
10
73.759954
20
149.891428
11
74.511895
21
152.297766
0
LINE
8
Layer 1
10
74.511895
20
152.297766
11
75.457283
21
154.611765
0
LINE
8
Layer 1
10
75.457283
20
154.611765
11
76.586558
21
156.823865
0
LINE
8
Layer 1
10
76.586558
20
156.823865
11
77.890163
21
158.924506
0
LINE
8
Layer 1
10
77.890163
20
158.924506
11
79.358537
21
160.904125
0
LINE
8
Layer 1
10
79.358537
20
160.904125
11
80.982123
21
162.753162
0
LINE
8
Layer 1
10
80.982123
20
162.753162
11
82.751362
21
164.462057
0
LINE
8
Layer 1
10
82.751362
20
164.462057
11
84.656694
21
166.021247
0
LINE
8
Layer 1
10
84.656694
20
166.021247
11
86.688561
21
167.421172
0
LINE
8
Layer 1
10
86.688561
20
167.421172
11
88.837404
21
168.652271
0
LINE
8
Layer 1
10
88.837404
20
168.652271
11
91.093664
21
169.704982
0
LINE
8
Layer 1
10
91.093664
20
169.704982
11
93.447782
21
170.569746
0
LINE
8
Layer 1
10
93.447782
20
170.569746
11
95.890200
21
171.237000
0
LINE
8
Layer 1
10
95.890200
20
171.237000
11
100.810900
21
171.791875
0
LINE
8
Layer 1
10
100.810900
20
171.791875
11
105.833000
21
171.980000
0
LINE
8
Layer 1
10
105.833000
20
171.980000
11
109.236827
21
171.893930
0
LINE
8
Layer 1
10
109.236827
20
171.893930
11
112.595974
21
171.638491
0
LINE
8
Layer 1
10
112.595974
20
171.638491
11
115.906285
21
171.217839
0
LINE
8
Layer 1
10
115.906285
20
171.217839
11
119.163604
21
170.636131
0
LINE
8
Layer 1
10
119.163604
20
170.636131
11
122.363773
21
169.897522
0
LINE
8
Layer 1
10
122.363773
20
169.897522
11
125.502638
21
169.006170
0
LINE
8
Layer 1
10
125.502638
20
169.006170
11
128.576042
21
167.966230
0
LINE
8
Layer 1
10
128.576042
20
167.966230
11
131.579828
21
166.781859
0
LINE
8
Layer 1
10
131.579828
20
166.781859
11
134.509840
21
165.457213
0
LINE
8
Layer 1
10
134.509840
20
165.457213
11
137.361922
21
163.996449
0
LINE
8
Layer 1
10
137.361922
20
163.996449
11
140.131917
21
162.403722
0
LINE
8
Layer 1
10
140.131917
20
162.403722
11
142.815670
21
160.683189
0
LINE
8
Layer 1
10
142.815670
20
160.683189
11
145.409023
21
158.839007
0
LINE
8
Layer 1
10
145.409023
20
158.839007
11
147.907821
21
156.875331
0
LINE
8
Layer 1
10
147.907821
20
156.875331
11
150.307907
21
154.796319
0
LINE
8
Layer 1
10
150.307907
20
154.796319
11
152.605125
21
152.606125
0
LINE
8
Layer 1
10
152.605125
20
152.606125
11
154.795319
21
150.308907
0
LINE
8
Layer 1
10
154.795319
20
150.308907
11
156.874331
21
147.908821
0
LINE
8
Layer 1
10
156.874331
20
147.908821
11
158.838007
21
145.410023
0
LINE
8
Layer 1
10
158.838007
20
145.410023
11
160.682189
21
142.816670
0
LINE
8
Layer 1
10
160.682189
20
142.816670
11
162.402722
21
140.132917
0
LINE
8
Layer 1
10
162.402722
20
140.132917
11
163.995449
21
137.362922
0
LINE
8
Layer 1
10
163.995449
20
137.362922
11
165.456213
21
134.510840
0
LINE
8
Layer 1
10
165.456213
20
134.510840
11
166.780859
21
131.580828
0
LINE
8
Layer 1
10
166.780859
20
131.580828
11
167.965230
21
128.577042
0
LINE
8
Layer 1
10
167.965230
20
128.577042
11
169.005170
21
125.503638
0
LINE
8
Layer 1
10
169.005170
20
125.503638
11
169.896522
21
122.364773
0
LINE
8
Layer 1
10
169.896522
20
122.364773
11
170.635131
21
119.164604
0
LINE
8
Layer 1
10
170.635131
20
119.164604
11
171.216839
21
115.907285
0
LINE
8
Layer 1
10
171.216839
20
115.907285
11
171.637491
21
112.596974
0
LINE
8
Layer 1
10
171.637491
20
112.596974
11
171.892930
21
109.237827
0
LINE
8
Layer 1
10
171.892930
20
109.237827
11
171.979000
21
105.834000
0
LINE
8
Layer 1
10
171.979000
20
105.834000
11
171.833862
21
101.416952
0
LINE
8
Layer 1
10
171.833862
20
101.416952
11
171.404537
21
97.077550
0
LINE
8
Layer 1
10
171.404537
20
97.077550
11
170.700158
21
92.824926
0
LINE
8
Layer 1
10
170.700158
20
92.824926
11
169.729859
21
88.668216
0
LINE
8
Layer 1
10
169.729859
20
88.668216
11
168.502773
21
84.616553
0
LINE
8
Layer 1
10
168.502773
20
84.616553
11
167.028033
21
80.679074
0
LINE
8
Layer 1
10
167.028033
20
80.679074
11
165.314773
21
76.864911
0
LINE
8
Layer 1
10
165.314773
20
76.864911
11
163.372125
21
73.183200
0
LINE
8
Layer 1
10
163.372125
20
73.183200
11
161.209223
21
69.643075
0
LINE
8
Layer 1
10
161.209223
20
69.643075
11
158.835201
21
66.253670
0
LINE
8
Layer 1
10
158.835201
20
66.253670
11
156.259192
21
63.024120
0
LINE
8
Layer 1
10
156.259192
20
63.024120
11
153.490328
21
59.963559
0
LINE
8
Layer 1
10
153.490328
20
59.963559
11
150.537744
21
57.081123
0
LINE
8
Layer 1
10
150.537744
20
57.081123
11
147.410572
21
54.385944
0
LINE
8
Layer 1
10
147.410572
20
54.385944
11
144.117947
21
51.887158
0
LINE
8
Layer 1
10
144.117947
20
51.887158
11
140.669000
21
49.593900
0
LINE
8
Layer 1
10
140.669000
20
49.593900
11
142.734516
21
54.195800
0
LINE
8
Layer 1
10
142.734516
20
54.195800
11
143.566068
21
56.599359
0
LINE
8
Layer 1
10
143.566068
20
56.599359
11
144.257125
21
59.065000
0
LINE
8
Layer 1
10
144.257125
20
59.065000
11
144.802916
21
61.587978
0
LINE
8
Layer 1
10
144.802916
20
61.587978
11
145.198672
21
64.163550
0
LINE
8
Layer 1
10
145.198672
20
64.163550
11
145.439623
21
66.786972
0
LINE
8
Layer 1
10
145.439623
20
66.786972
11
145.521000
21
69.453500
0
LINE
8
Layer 1
10
145.521000
20
69.453500
11
145.299016
21
73.849486
0
LINE
8
Layer 1
10
145.299016
20
73.849486
11
144.647475
21
78.118476
0
LINE
8
Layer 1
10
144.647475
20
78.118476
11
143.587989
21
82.238858
0
LINE
8
Layer 1
10
143.587989
20
82.238858
11
142.142172
21
86.189023
0
LINE
8
Layer 1
10
142.142172
20
86.189023
11
140.331638
21
89.947362
0
LINE
8
Layer 1
10
140.331638
20
89.947362
11
138.178002
21
93.492263
0
LINE
8
Layer 1
10
138.178002
20
93.492263
11
135.702876
21
96.802116
0
LINE
8
Layer 1
10
135.702876
20
96.802116
11
132.927875
21
99.855312
0
LINE
8
Layer 1
10
132.927875
20
99.855312
11
129.874612
21
102.630241
0
LINE
8
Layer 1
10
129.874612
20
102.630241
11
126.564701
21
105.105292
0
LINE
8
Layer 1
10
126.564701
20
105.105292
11
123.019756
21
107.258855
0
LINE
8
Layer 1
10
123.019756
20
107.258855
11
119.261391
21
109.069320
0
LINE
8
Layer 1
10
119.261391
20
109.069320
11
115.311219
21
110.515078
0
LINE
8
Layer 1
10
115.311219
20
110.515078
11
111.190854
21
111.574517
0
LINE
8
Layer 1
10
111.190854
20
111.574517
11
106.921909
21
112.226027
0
LINE
8
Layer 1
10
106.921909
20
112.226027
11
102.526000
21
112.448000
0
LINE
8
Layer 1
10
102.526000
20
112.448000
11
99.482638
21
112.601682
0
LINE
8
Layer 1
10
99.482638
20
112.601682
11
96.527190
21
113.052752
0
LINE
8
Layer 1
10
96.527190
20
113.052752
11
93.674616
21
113.786247
0
LINE
8
Layer 1
10
93.674616
20
113.786247
11
90.939880
21
114.787203
0
LINE
8
Layer 1
10
90.939880
20
114.787203
11
88.337942
21
116.040657
0
LINE
8
Layer 1
10
88.337942
20
116.040657
11
85.883764
21
117.531646
0
LINE
8
Layer 1
10
85.883764
20
117.531646
11
83.592309
21
119.245207
0
LINE
8
Layer 1
10
83.592309
20
119.245207
11
81.478538
21
121.166375
0
LINE
8
Layer 1
10
81.478538
20
121.166375
11
79.557412
21
123.280188
0
LINE
8
Layer 1
10
79.557412
20
123.280188
11
77.843894
21
125.571682
0
LINE
8
Layer 1
10
77.843894
20
125.571682
11
76.352945
21
128.025893
0
LINE
8
Layer 1
10
76.352945
20
128.025893
11
75.099527
21
130.627859
0
LINE
8
Layer 1
10
75.099527
20
130.627859
11
74.098601
21
133.362616
0
LINE
8
Layer 1
10
74.098601
20
133.362616
11
73.365131
21
136.215201
0
LINE
8
Layer 1
10
73.365131
20
136.215201
11
72.914076
21
139.170650
0
LINE
8
Layer 1
10
72.914076
20
139.170650
11
72.760400
21
142.214000
0
LINE
8
Layer 1
10
72.760400
20
142.214000
11
72.760400
21
142.214000
0
LINE
8
Layer 1
10
112.448000
20
142.214000
11
112.246430
21
144.213695
0
LINE
8
Layer 1
10
112.246430
20
144.213695
11
111.668313
21
146.076188
0
LINE
8
Layer 1
10
111.668313
20
146.076188
11
110.753539
21
147.761586
0
LINE
8
Layer 1
10
110.753539
20
147.761586
11
109.542000
21
149.230000
0
LINE
8
Layer 1
10
109.542000
20
149.230000
11
108.073586
21
150.441539
0
LINE
8
Layer 1
10
108.073586
20
150.441539
11
106.388187
21
151.356313
0
LINE
8
Layer 1
10
106.388187
20
151.356313
11
104.525695
21
151.934430
0
LINE
8
Layer 1
10
104.525695
20
151.934430
11
102.526000
21
152.136000
0
LINE
8
Layer 1
10
102.526000
20
152.136000
11
100.526453
21
151.934430
0
LINE
8
Layer 1
10
100.526453
20
151.934430
11
98.664039
21
151.356313
0
LINE
8
Layer 1
10
98.664039
20
151.356313
11
96.978665
21
150.441539
0
LINE
8
Layer 1
10
96.978665
20
150.441539
11
95.510237
21
149.230000
0
LINE
8
Layer 1
10
95.510237
20
149.230000
11
94.298661
21
147.761586
0
LINE
8
Layer 1
10
94.298661
20
147.761586
11
93.383842
21
146.076188
0
LINE
8
Layer 1
10
93.383842
20
146.076188
11
92.805687
21
144.213695
0
LINE
8
Layer 1
10
92.805687
20
144.213695
11
92.604100
21
142.214000
0
LINE
8
Layer 1
10
92.604100
20
142.214000
11
92.805687
21
140.214305
0
LINE
8
Layer 1
10
92.805687
20
140.214305
11
93.383842
21
138.351812
0
LINE
8
Layer 1
10
93.383842
20
138.351812
11
94.298661
21
136.666414
0
LINE
8
Layer 1
10
94.298661
20
136.666414
11
95.510237
21
135.198000
0
LINE
8
Layer 1
10
95.510237
20
135.198000
11
96.978665
21
133.986461
0
LINE
8
Layer 1
10
96.978665
20
133.986461
11
98.664039
21
133.071687
0
LINE
8
Layer 1
10
98.664039
20
133.071687
11
100.526453
21
132.493570
0
LINE
8
Layer 1
10
100.526453
20
132.493570
11
102.526000
21
132.292000
0
LINE
8
Layer 1
10
102.526000
20
132.292000
11
104.525695
21
132.493570
0
LINE
8
Layer 1
10
104.525695
20
132.493570
11
106.388187
21
133.071687
0
LINE
8
Layer 1
10
106.388187
20
133.071687
11
108.073586
21
133.986461
0
LINE
8
Layer 1
10
108.073586
20
133.986461
11
109.542000
21
135.198000
0
LINE
8
Layer 1
10
109.542000
20
135.198000
11
110.753539
21
136.666414
0
LINE
8
Layer 1
10
110.753539
20
136.666414
11
111.668313
21
138.351812
0
LINE
8
Layer 1
10
111.668313
20
138.351812
11
112.246430
21
140.214305
0
LINE
8
Layer 1
10
112.246430
20
140.214305
11
112.448000
21
142.214000
0
LINE
8
Layer 1
10
112.448000
20
142.214000
11
112.448000
21
142.214000
0
LINE
8
Layer 1
10
112.448000
20
69.453500
11
112.246430
21
71.453047
0
LINE
8
Layer 1
10
112.246430
20
71.453047
11
111.668313
21
73.315461
0
LINE
8
Layer 1
10
111.668313
20
73.315461
11
110.753539
21
75.000835
0
LINE
8
Layer 1
10
110.753539
20
75.000835
11
109.542000
21
76.469263
0
LINE
8
Layer 1
10
109.542000
20
76.469263
11
108.073586
21
77.680839
0
LINE
8
Layer 1
10
108.073586
20
77.680839
11
106.388187
21
78.595658
0
LINE
8
Layer 1
10
106.388187
20
78.595658
11
104.525695
21
79.173813
0
LINE
8
Layer 1
10
104.525695
20
79.173813
11
102.526000
21
79.375400
0
LINE
8
Layer 1
10
102.526000
20
79.375400
11
100.526453
21
79.173813
0
LINE
8
Layer 1
10
100.526453
20
79.173813
11
98.664039
21
78.595658
0
LINE
8
Layer 1
10
98.664039
20
78.595658
11
96.978665
21
77.680839
0
LINE
8
Layer 1
10
96.978665
20
77.680839
11
95.510237
21
76.469263
0
LINE
8
Layer 1
10
95.510237
20
76.469263
11
94.298661
21
75.000835
0
LINE
8
Layer 1
10
94.298661
20
75.000835
11
93.383842
21
73.315461
0
LINE
8
Layer 1
10
93.383842
20
73.315461
11
92.805687
21
71.453047
0
LINE
8
Layer 1
10
92.805687
20
71.453047
11
92.604100
21
69.453500
0
LINE
8
Layer 1
10
92.604100
20
69.453500
11
92.805687
21
67.453957
0
LINE
8
Layer 1
10
92.805687
20
67.453957
11
93.383842
21
65.591555
0
LINE
8
Layer 1
10
93.383842
20
65.591555
11
94.298661
21
63.906197
0
LINE
8
Layer 1
10
94.298661
20
63.906197
11
95.510237
21
62.437787
0
LINE
8
Layer 1
10
95.510237
20
62.437787
11
96.978665
21
61.226229
0
LINE
8
Layer 1
10
96.978665
20
61.226229
11
98.664039
21
60.311427
0
LINE
8
Layer 1
10
98.664039
20
60.311427
11
100.526453
21
59.733282
0
LINE
8
Layer 1
10
100.526453
20
59.733282
11
102.526000
21
59.531700
0
LINE
8
Layer 1
10
102.526000
20
59.531700
11
104.525695
21
59.733282
0
LINE
8
Layer 1
10
104.525695
20
59.733282
11
106.388187
21
60.311427
0
LINE
8
Layer 1
10
106.388187
20
60.311427
11
108.073586
21
61.226229
0
LINE
8
Layer 1
10
108.073586
20
61.226229
11
109.542000
21
62.437787
0
LINE
8
Layer 1
10
109.542000
20
62.437787
11
110.753539
21
63.906197
0
LINE
8
Layer 1
10
110.753539
20
63.906197
11
111.668313
21
65.591555
0
LINE
8
Layer 1
10
111.668313
20
65.591555
11
112.246430
21
67.453957
0
LINE
8
Layer 1
10
112.246430
20
67.453957
11
112.448000
21
69.453500
0
LINE
8
Layer 1
10
112.448000
20
69.453500
11
112.448000
21
69.453500
 0 
ENDSEC
 0 
EOF