#OBJ
#T-FLEX CAD ObjGenerator generate date:19.02.2025 0:14:10
mtllib materials1.mtl
v 0.012147 0.000399 -0.01126
v 0.01059 0.000399 -0.011717
v 0.010121 0.000399 -0.008746
v -0.000618 0.000399 -0.005149
v 0 0.000399 -0.004123
v 0 0.000399 -0.008944
v -0.01692 0.000399 -0.001196
v -0.01989 0.000399 -0.001618
v -0.019999 0.000399 0
v -0.001279 0.000399 -0.009941
v -0.003205 0.000399 -0.007616
v -0.002236 0.000399 -0.006912
v -0.002682 0.000399 -0.010757
v -0.00426 0.000399 -0.008186
v -0.013628 0.000399 -0.010598
v -0.01235 0.000399 -0.007878
v -0.011264 0.000399 -0.008386
v -0.015006 0.000399 -0.009741
v -0.013358 0.000399 -0.00723
v 0.01235 0.000399 -0.007878
v 0.013358 0.000399 -0.00723
v 0.015006 0.000399 -0.009741
v 0.013628 0.000399 -0.010598
v 0.011264 0.000399 -0.008386
v 0.00894 0.000399 -0.00895
v 0.008985 0.000399 -0.011959
v 0.007363 0.000399 -0.011983
v 0.007742 0.000399 -0.008996
v 0.005752 0.000399 -0.011787
v 0.004182 0.000399 -0.011376
v 0.005381 0.000399 -0.00861
v 0.002682 0.000399 -0.010757
v 0.00426 0.000399 -0.008186
v 0.001279 0.000399 -0.009941
v 0.003205 0.000399 -0.007616
v 0.002236 0.000399 -0.006912
v -0.001368 0.000399 -0.006084
v -0.004182 0.000399 -0.011376
v -0.005381 0.000399 -0.00861
v -0.005752 0.000399 -0.011787
v -0.006549 0.000399 -0.008882
v -0.012147 0.000399 -0.01126
v -0.010121 0.000399 -0.008746
v -0.017356 0.000399 -0.007513
v -0.015074 0.000399 -0.005563
v -0.014272 0.000399 -0.006454
v -0.018284 0.000399 -0.006183
v -0.01575 0.000399 -0.004574
v -0.019024 0.000399 -0.004738
v -0.01629 0.000399 -0.003503
v -0.019563 0.000399 -0.003208
v -0.016682 0.000399 -0.00237
v 0.000618 0.000399 -0.005149
v -0.007363 0.000399 -0.011983
v -0.007742 0.000399 -0.008996
v -0.016257 0.000399 -0.008707
v 0.006549 0.000399 -0.008882
v 0.001368 0.000399 -0.006084
v -0.008985 0.000399 -0.011959
v -0.00894 0.000399 -0.00895
v -0.01059 0.000399 -0.011717
v -0.017 0.000399 -0
v 0.01989 0.000399 -0.001618
v 0.019563 0.000399 -0.003208
v 0.016682 0.000399 -0.00237
v 0.019024 0.000399 -0.004738
v 0.01629 0.000399 -0.003503
v 0.018284 0.000399 -0.006183
v 0.01575 0.000399 -0.004574
v 0.017356 0.000399 -0.007513
v 0.015074 0.000399 -0.005563
v 0.019999 0.000399 0
v 0.01692 0.000399 -0.001196
v 0.014272 0.000399 -0.006454
v 0.017 0.000399 0
v 0.016257 0.000399 -0.008707
v 0.015074 0 -0.005563
v 0.017356 0 -0.007513
v 0.018284 0 -0.006183
v -0.015006 0 -0.009741
v -0.013628 0 -0.010598
v -0.01235 0 -0.007878
v 0.000618 0 -0.005149
v 0 0 -0.004123
v 0 0 -0.008944
v -0.01692 0 -0.001196
v -0.017 0 -0
v -0.019999 0 0
v -0.006549 0 -0.008882
v -0.007742 0 -0.008996
v -0.007363 0 -0.011983
v 0.01629 0 -0.003503
v 0.019024 0 -0.004738
v 0.019563 0 -0.003208
v -0.003205 0 -0.007616
v -0.00426 0 -0.008186
v -0.002682 0 -0.010757
v -0.00894 0 -0.00895
v -0.010121 0 -0.008746
v -0.01059 0 -0.011717
v 0.01692 0 -0.001196
v 0.01989 0 -0.001618
v 0.019999 0 0
v -0.001368 0 -0.006084
v -0.002236 0 -0.006912
v -0.000618 0 -0.005149
v -0.005381 0 -0.00861
v -0.005752 0 -0.011787
v -0.008985 0 -0.011959
v -0.01629 0 -0.003503
v -0.016682 0 -0.00237
v -0.019563 0 -0.003208
v 0.017 0 0
v 0.016682 0 -0.00237
v 0.01575 0 -0.004574
v -0.012147 0 -0.01126
v -0.011264 0 -0.008386
v -0.004182 0 -0.011376
v -0.013358 0 -0.00723
v -0.014272 0 -0.006454
v -0.016257 0 -0.008707
v -0.01989 0 -0.001618
v 0.011264 0 -0.008386
v 0.012147 0 -0.01126
v 0.013628 0 -0.010598
v 0.00426 0 -0.008186
v 0.002682 0 -0.010757
v 0.004182 0 -0.011376
v -0.001279 0 -0.009941
v 0.001368 0 -0.006084
v -0.015074 0 -0.005563
v -0.017356 0 -0.007513
v 0.013358 0 -0.00723
v 0.015006 0 -0.009741
v 0.016257 0 -0.008707
v 0.007742 0 -0.008996
v 0.007363 0 -0.011983
v 0.008985 0 -0.011959
v 0.005381 0 -0.00861
v 0.005752 0 -0.011787
v 0.002236 0 -0.006912
v 0.001279 0 -0.009941
v -0.01575 0 -0.004574
v -0.018284 0 -0.006183
v 0.014272 0 -0.006454
v 0.01235 0 -0.007878
v 0.00894 0 -0.00895
v 0.01059 0 -0.011717
v 0.006549 0 -0.008882
v -0.019024 0 -0.004738
v 0.010121 0 -0.008746
v 0.003205 0 -0.007616
v 0.019999 0 0
v 0.019999 0.000399 0
v 0.017 0.000399 0
v 0.017 0 0
v 0.015074 0 -0.005563
v 0.01575 0 -0.004574
v 0.01575 0.000399 -0.004574
v 0.01692 0 -0.001196
v 0.017 0 0
v 0.017 0.000399 0
v 0.016682 0 -0.00237
v 0.01692 0.000399 -0.001196
v 0.01629 0 -0.003503
v 0.016682 0.000399 -0.00237
v 0.01629 0.000399 -0.003503
v 0.014272 0 -0.006454
v 0.015074 0.000399 -0.005563
v 0.013358 0 -0.00723
v 0.014272 0.000399 -0.006454
v 0.01235 0 -0.007878
v 0.013358 0.000399 -0.00723
v 0.011264 0 -0.008386
v 0.01235 0.000399 -0.007878
v 0.010121 0 -0.008746
v 0.011264 0.000399 -0.008386
v 0.00894 0 -0.00895
v 0.010121 0.000399 -0.008746
v 0.007742 0 -0.008996
v 0.00894 0.000399 -0.00895
v 0.006549 0 -0.008882
v 0.007742 0.000399 -0.008996
v 0.005381 0 -0.00861
v 0.006549 0.000399 -0.008882
v 0.00426 0 -0.008186
v 0.005381 0.000399 -0.00861
v 0.003205 0 -0.007616
v 0.00426 0.000399 -0.008186
v 0.002236 0 -0.006912
v 0.003205 0.000399 -0.007616
v 0.001368 0 -0.006084
v 0.002236 0.000399 -0.006912
v 0.000618 0 -0.005149
v 0.001368 0.000399 -0.006084
v 0 0 -0.004123
v 0.000618 0.000399 -0.005149
v 0 0.000399 -0.004123
v -0.015074 0 -0.005563
v -0.014272 0 -0.006454
v -0.014272 0.000399 -0.006454
v -0.01575 0 -0.004574
v -0.015074 0.000399 -0.005563
v -0.01629 0 -0.003503
v -0.01575 0.000399 -0.004574
v -0.016682 0 -0.00237
v -0.01629 0.000399 -0.003503
v -0.01692 0 -0.001196
v -0.016682 0.000399 -0.00237
v -0.017 0 -0
v -0.01692 0.000399 -0.001196
v -0.017 0.000399 -0
v -0.013358 0.000399 -0.00723
v -0.01235 0.000399 -0.007878
v -0.013358 0 -0.00723
v -0.007742 0 -0.008996
v -0.006549 0 -0.008882
v -0.006549 0.000399 -0.008882
v -0.003205 0.000399 -0.007616
v -0.00426 0.000399 -0.008186
v -0.00426 0 -0.008186
v 0 0.000399 -0.004123
v -0.000618 0.000399 -0.005149
v -0.000618 0 -0.005149
v -0.001368 0.000399 -0.006084
v -0.001368 0 -0.006084
v -0.002236 0.000399 -0.006912
v -0.002236 0 -0.006912
v -0.003205 0 -0.007616
v -0.00894 0.000399 -0.00895
v -0.010121 0.000399 -0.008746
v -0.010121 0 -0.008746
v -0.005381 0.000399 -0.00861
v -0.005381 0 -0.00861
v -0.007742 0.000399 -0.008996
v -0.00894 0 -0.00895
v -0.011264 0.000399 -0.008386
v -0.011264 0 -0.008386
v 0 0 -0.004123
v -0.01235 0 -0.007878
v -0.019999 0.000399 0
v -0.019999 0 0
v -0.017 0 -0
v -0.017 0.000399 -0
v -0.005752 0 -0.011787
v -0.005752 0.000399 -0.011787
v -0.004182 0.000399 -0.011376
v -0.007363 0 -0.011983
v -0.007363 0.000399 -0.011983
v -0.008985 0 -0.011959
v -0.008985 0.000399 -0.011959
v -0.01059 0 -0.011717
v -0.01059 0.000399 -0.011717
v -0.013628 0 -0.010598
v -0.013628 0.000399 -0.010598
v -0.012147 0.000399 -0.01126
v -0.015006 0 -0.009741
v -0.015006 0.000399 -0.009741
v -0.016257 0 -0.008707
v -0.016257 0.000399 -0.008707
v -0.017356 0 -0.007513
v -0.017356 0.000399 -0.007513
v -0.018284 0 -0.006183
v -0.018284 0.000399 -0.006183
v -0.019563 0 -0.003208
v -0.019563 0.000399 -0.003208
v -0.019024 0.000399 -0.004738
v -0.01989 0 -0.001618
v -0.01989 0.000399 -0.001618
v -0.019999 0 0
v -0.019999 0.000399 0
v -0.012147 0 -0.01126
v -0.019024 0 -0.004738
v -0.004182 0 -0.011376
v -0.002682 0.000399 -0.010757
v -0.002682 0 -0.010757
v -0.001279 0.000399 -0.009941
v -0.001279 0 -0.009941
v 0 0.000399 -0.008944
v 0 0 -0.008944
v 0.005752 0.000399 -0.011787
v 0.005752 0 -0.011787
v 0.004182 0 -0.011376
v 0.007363 0.000399 -0.011983
v 0.007363 0 -0.011983
v 0.008985 0.000399 -0.011959
v 0.008985 0 -0.011959
v 0.01059 0.000399 -0.011717
v 0.01059 0 -0.011717
v 0.012147 0.000399 -0.01126
v 0.012147 0 -0.01126
v 0.013628 0.000399 -0.010598
v 0.013628 0 -0.010598
v 0.015006 0.000399 -0.009741
v 0.015006 0 -0.009741
v 0.016257 0.000399 -0.008707
v 0.016257 0 -0.008707
v 0.017356 0.000399 -0.007513
v 0.017356 0 -0.007513
v 0.018284 0.000399 -0.006183
v 0.018284 0 -0.006183
v 0.019024 0.000399 -0.004738
v 0.019024 0 -0.004738
v 0.019563 0.000399 -0.003208
v 0.019563 0 -0.003208
v 0.01989 0.000399 -0.001618
v 0.01989 0 -0.001618
v 0.019999 0.000399 0
v 0.019999 0 0
v 0 0 -0.008944
v 0 0.000399 -0.008944
v 0.001279 0.000399 -0.009941
v 0.002682 0 -0.010757
v 0.002682 0.000399 -0.010757
v 0.004182 0.000399 -0.011376
v 0.001279 0 -0.009941
vn 0 1 0
vn 0 1 0
vn 0 1 0
vn 0 1 0
vn 0 1 0
vn 0 1 0
vn 0 1 0
vn 0 1 0
vn 0 1 0
vn 0 1 0
vn 0 1 0
vn 0 1 0
vn 0 1 0
vn 0 1 0
vn 0 1 0
vn 0 1 0
vn 0 1 0
vn 0 1 0
vn 0 1 0
vn 0 1 0
vn 0 1 0
vn 0 1 0
vn 0 1 0
vn 0 1 0
vn 0 1 0
vn 0 1 0
vn 0 1 0
vn 0 1 0
vn 0 1 0
vn 0 1 0
vn 0 1 0
vn 0 1 0
vn 0 1 0
vn 0 1 0
vn 0 1 0
vn 0 1 0
vn 0 1 0
vn 0 1 0
vn 0 1 0
vn 0 1 0
vn 0 1 0
vn 0 1 0
vn 0 1 0
vn 0 1 0
vn 0 1 0
vn 0 1 0
vn 0 1 0
vn 0 1 0
vn 0 1 0
vn 0 1 0
vn 0 1 0
vn 0 1 0
vn 0 1 0
vn 0 1 0
vn 0 1 0
vn 0 1 0
vn 0 1 0
vn 0 1 0
vn 0 1 0
vn 0 1 0
vn 0 1 0
vn 0 1 0
vn 0 1 0
vn 0 1 0
vn 0 1 0
vn 0 1 0
vn 0 1 0
vn 0 1 0
vn 0 1 0
vn 0 1 0
vn 0 1 0
vn 0 1 0
vn 0 1 0
vn 0 1 0
vn 0 1 0
vn 0 1 0
vn 0 -1 0
vn 0 -1 0
vn 0 -1 0
vn 0 -1 0
vn 0 -1 0
vn 0 -1 0
vn 0 -1 0
vn 0 -1 0
vn 0 -1 0
vn 0 -1 0
vn 0 -1 0
vn 0 -1 0
vn 0 -1 0
vn 0 -1 0
vn 0 -1 0
vn 0 -1 0
vn 0 -1 0
vn 0 -1 0
vn 0 -1 0
vn 0 -1 0
vn 0 -1 0
vn 0 -1 0
vn 0 -1 0
vn 0 -1 0
vn 0 -1 0
vn 0 -1 0
vn 0 -1 0
vn 0 -1 0
vn 0 -1 0
vn 0 -1 0
vn 0 -1 0
vn 0 -1 0
vn 0 -1 0
vn 0 -1 0
vn 0 -1 0
vn 0 -1 0
vn 0 -1 0
vn 0 -1 0
vn 0 -1 0
vn 0 -1 0
vn 0 -1 0
vn 0 -1 0
vn 0 -1 0
vn 0 -1 0
vn 0 -1 0
vn 0 -1 0
vn 0 -1 0
vn 0 -1 0
vn 0 -1 0
vn 0 -1 0
vn 0 -1 0
vn 0 -1 0
vn 0 -1 0
vn 0 -1 0
vn 0 -1 0
vn 0 -1 0
vn 0 -1 0
vn 0 -1 0
vn 0 -1 0
vn 0 -1 0
vn 0 -1 0
vn 0 -1 0
vn 0 -1 0
vn 0 -1 0
vn 0 -1 0
vn 0 -1 0
vn 0 -1 0
vn 0 -1 0
vn 0 -1 0
vn 0 -1 0
vn 0 -1 0
vn 0 -1 0
vn 0 -1 0
vn 0 -1 0
vn 0 -1 0
vn 0 -1 0
vn 0 0 1
vn 0 0 1
vn 0 0 1
vn 0 0 1
vn -0.786035 0 0.618181
vn -0.861214 0 0.508241
vn -0.861214 0 0.508241
vn -0.99113 0 0.132891
vn -1 0 0
vn -1 0 0
vn -0.964679 0 0.263425
vn -0.99113 0 0.132891
vn -0.921116 0 0.389286
vn -0.964679 0 0.263425
vn -0.921116 0 0.389286
vn -0.696912 0 0.717156
vn -0.786035 0 0.618181
vn -0.595427 0 0.803409
vn -0.696912 0 0.717156
vn -0.48338 0 0.87541
vn -0.595427 0 0.803409
vn -0.362758 0 0.931883
vn -0.48338 0 0.87541
vn -0.235702 0 0.971825
vn -0.362758 0 0.931883
vn -0.104464 0 0.994528
vn -0.235702 0 0.971825
vn 0.028626 0 0.99959
vn -0.104464 0 0.994528
vn 0.161208 0 0.98692
vn 0.028626 0 0.99959
vn 0.290932 0 0.956743
vn 0.161208 0 0.98692
vn 0.415494 0 0.909595
vn 0.290932 0 0.956743
vn 0.532686 0 0.846312
vn 0.415494 0 0.909595
vn 0.640429 0 0.768016
vn 0.532686 0 0.846312
vn 0.736812 0 0.676097
vn 0.640429 0 0.768016
vn 0.820124 0 0.572185
vn 0.736812 0 0.676097
vn 0.888888 0 0.458122
vn 0.820124 0 0.572185
vn 0.888888 0 0.458122
vn 0.786035 0 0.618181
vn 0.696912 0 0.717156
vn 0.696912 0 0.717156
vn 0.861214 0 0.508241
vn 0.786035 0 0.618181
vn 0.921116 0 0.389286
vn 0.861214 0 0.508241
vn 0.964679 0 0.263425
vn 0.921116 0 0.389286
vn 0.99113 0 0.132891
vn 0.964679 0 0.263425
vn 1 0 0
vn 0.99113 0 0.132891
vn 1 0 0
vn 0.595427 0 0.803409
vn 0.48338 0 0.87541
vn 0.595427 0 0.803409
vn -0.028626 0 0.99959
vn -0.161208 0 0.98692
vn -0.161208 0 0.98692
vn -0.532686 0 0.846312
vn -0.415494 0 0.909595
vn -0.415494 0 0.909595
vn -0.888888 0 0.458122
vn -0.820124 0 0.572185
vn -0.820124 0 0.572185
vn -0.736812 0 0.676097
vn -0.736812 0 0.676097
vn -0.640429 0 0.768016
vn -0.640429 0 0.768016
vn -0.532686 0 0.846312
vn 0.104464 0 0.994528
vn 0.235702 0 0.971825
vn 0.235702 0 0.971825
vn -0.290932 0 0.956743
vn -0.290932 0 0.956743
vn -0.028626 0 0.99959
vn 0.104464 0 0.994528
vn 0.362758 0 0.931883
vn 0.362758 0 0.931883
vn -0.888888 0 0.458122
vn 0.48338 0 0.87541
vn 0 0 1
vn 0 0 1
vn 0 0 1
vn 0 0 1
vn 0.187314 0 -0.982299
vn 0.187314 0 -0.982299
vn 0.318126 0 -0.948048
vn 0.053077 0 -0.99859
vn 0.053077 0 -0.99859
vn -0.082129 0 -0.996621
vn -0.082129 0 -0.996621
vn -0.215835 0 -0.976429
vn -0.215835 0 -0.976429
vn -0.469034 0 -0.88318
vn -0.469034 0 -0.88318
vn -0.345594 0 -0.938384
vn -0.583897 0 -0.811827
vn -0.583897 0 -0.811827
vn -0.688085 0 -0.72563
vn -0.688085 0 -0.72563
vn -0.77969 0 -0.626164
vn -0.77969 0 -0.626164
vn -0.857039 0 -0.51525
vn -0.857039 0 -0.51525
vn -0.963597 0 -0.267357
vn -0.963597 0 -0.267357
vn -0.918717 0 -0.394914
vn -0.990857 0 -0.134912
vn -0.990857 0 -0.134912
vn -1 0 0
vn -1 0 0
vn -0.345594 0 -0.938384
vn -0.918717 0 -0.394914
vn 0.318126 0 -0.948048
vn 0.443121 0 -0.896461
vn 0.443121 0 -0.896461
vn 0.560014 0 -0.828483
vn 0.560014 0 -0.828483
vn 0.666666 0 -0.745355
vn 0.666666 0 -0.745355
vn -0.187314 0 -0.982299
vn -0.187314 0 -0.982299
vn -0.318126 0 -0.948048
vn -0.053077 0 -0.99859
vn -0.053077 0 -0.99859
vn 0.082129 0 -0.996621
vn 0.082129 0 -0.996621
vn 0.215835 0 -0.976429
vn 0.215835 0 -0.976429
vn 0.345594 0 -0.938384
vn 0.345594 0 -0.938384
vn 0.469034 0 -0.88318
vn 0.469034 0 -0.88318
vn 0.583897 0 -0.811827
vn 0.583897 0 -0.811827
vn 0.688085 0 -0.72563
vn 0.688085 0 -0.72563
vn 0.77969 0 -0.626164
vn 0.77969 0 -0.626164
vn 0.857039 0 -0.51525
vn 0.857039 0 -0.51525
vn 0.918717 0 -0.394914
vn 0.918717 0 -0.394914
vn 0.963597 0 -0.267357
vn 0.963597 0 -0.267357
vn 0.990857 0 -0.134912
vn 0.990857 0 -0.134912
vn 1 0 -0
vn 1 0 -0
vn -0.666666 0 -0.745355
vn -0.666666 0 -0.745355
vn -0.560014 0 -0.828483
vn -0.443121 0 -0.896461
vn -0.443121 0 -0.896461
vn -0.318126 0 -0.948048
vn -0.560014 0 -0.828483
usemtl App0
f 1//1 2//2 3//3
f 4//4 5//5 6//6
f 7//7 8//8 9//9
f 10//10 11//11 12//12
f 13//13 14//14 11//11
f 15//15 16//16 17//17
f 18//18 19//19 16//16
f 20//20 21//21 22//22
f 23//23 1//1 24//24
f 25//25 3//3 2//2
f 26//26 27//27 28//28
f 29//29 30//30 31//31
f 30//30 32//32 33//33
f 32//32 34//34 35//35
f 34//34 6//6 36//36
f 6//6 12//12 37//37
f 11//11 10//10 13//13
f 38//38 39//39 14//14
f 16//16 15//15 18//18
f 40//40 41//41 39//39
f 42//42 17//17 43//43
f 44//44 45//45 46//46
f 47//47 48//48 45//45
f 49//49 50//50 48//48
f 51//51 52//52 50//50
f 24//24 20//20 23//23
f 28//28 25//25 26//26
f 33//33 31//31 30//30
f 36//36 35//35 34//34
f 6//6 5//5 53//53
f 12//12 6//6 10//10
f 39//39 38//38 40//40
f 54//54 55//55 41//41
f 17//17 42//42 15//15
f 56//56 46//46 19//19
f 45//45 44//44 47//47
f 50//50 49//49 51//51
f 3//3 24//24 1//1
f 27//27 29//29 57//57
f 35//35 33//33 32//32
f 53//53 58//58 6//6
f 37//37 4//4 6//6
f 41//41 40//40 54//54
f 59//59 60//60 55//55
f 61//61 43//43 60//60
f 19//19 18//18 56//56
f 48//48 47//47 49//49
f 8//8 7//7 52//52
f 9//9 62//62 7//7
f 63//63 64//64 65//65
f 64//64 66//66 67//67
f 66//66 68//68 69//69
f 68//68 70//70 71//71
f 57//57 28//28 27//27
f 58//58 36//36 6//6
f 14//14 13//13 38//38
f 60//60 59//59 61//61
f 2//2 26//26 25//25
f 46//46 56//56 44//44
f 72//72 63//63 73//73
f 67//67 65//65 64//64
f 71//71 69//69 68//68
f 31//31 57//57 29//29
f 55//55 54//54 59//59
f 52//52 51//51 8//8
f 65//65 73//73 63//63
f 74//74 71//71 70//70
f 43//43 61//61 42//42
f 69//69 67//67 66//66
f 73//73 75//75 72//72
f 70//70 76//76 74//74
f 76//76 22//22 21//21
f 21//21 74//74 76//76
f 22//22 23//23 20//20
f 77//77 78//78 79//79
f 80//80 81//81 82//82
f 83//83 84//84 85//85
f 86//86 87//87 88//88
f 89//89 90//90 91//91
f 92//92 93//93 94//94
f 95//95 96//96 97//97
f 98//98 99//99 100//100
f 101//101 102//102 103//103
f 85//85 104//104 105//105
f 106//106 104//104 85//85
f 107//107 89//89 108//108
f 90//90 98//98 109//109
f 110//110 111//111 112//112
f 103//103 113//113 101//101
f 114//114 94//94 102//102
f 115//115 79//79 93//93
f 85//85 84//84 106//106
f 81//81 116//116 117//117
f 96//96 107//107 118//118
f 91//91 108//108 89//89
f 109//109 91//91 90//90
f 100//100 109//109 98//98
f 119//119 120//120 121//121
f 111//111 86//86 122//122
f 102//102 101//101 114//114
f 94//94 114//114 92//92
f 93//93 92//92 115//115
f 79//79 115//115 77//77
f 123//123 124//124 125//125
f 126//126 127//127 128//128
f 105//105 95//95 129//129
f 118//118 97//97 96//96
f 108//108 118//118 107//107
f 82//82 119//119 80//80
f 85//85 130//130 83//83
f 120//120 131//131 132//132
f 122//122 112//112 111//111
f 88//88 122//122 86//86
f 133//133 134//134 135//135
f 136//136 137//137 138//138
f 139//139 128//128 140//140
f 141//141 85//85 142//142
f 129//129 85//85 105//105
f 97//97 129//129 95//95
f 99//99 117//117 116//116
f 121//121 80//80 119//119
f 132//132 121//121 120//120
f 131//131 143//143 144//144
f 145//145 135//135 78//78
f 146//146 125//125 134//134
f 147//147 138//138 148//148
f 137//137 136//136 149//149
f 140//140 149//149 139//139
f 128//128 139//139 126//126
f 85//85 141//141 130//130
f 116//116 100//100 99//99
f 117//117 82//82 81//81
f 144//144 132//132 131//131
f 143//143 110//110 150//150
f 78//78 77//77 145//145
f 135//135 145//145 133//133
f 134//134 133//133 146//146
f 125//125 146//146 123//123
f 151//151 148//148 124//124
f 138//138 147//147 136//136
f 127//127 126//126 152//152
f 142//142 152//152 141//141
f 152//152 142//142 127//127
f 149//149 140//140 137//137
f 148//148 151//151 147//147
f 124//124 123//123 151//151
f 112//112 150//150 110//110
f 150//150 144//144 143//143
f 153//153 154//154 155//155
f 155//155 156//156 153//153
f 157//157 158//158 159//159
f 160//160 161//161 162//162
f 163//163 160//160 164//164
f 165//165 163//163 166//166
f 158//158 165//165 167//167
f 168//168 157//157 169//169
f 170//170 168//168 171//171
f 172//172 170//170 173//173
f 174//174 172//172 175//175
f 176//176 174//174 177//177
f 178//178 176//176 179//179
f 180//180 178//178 181//181
f 182//182 180//180 183//183
f 184//184 182//182 185//185
f 186//186 184//184 187//187
f 188//188 186//186 189//189
f 190//190 188//188 191//191
f 192//192 190//190 193//193
f 194//194 192//192 195//195
f 196//196 194//194 197//197
f 197//197 198//198 196//196
f 195//195 197//197 194//194
f 193//193 195//195 192//192
f 191//191 193//193 190//190
f 189//189 191//191 188//188
f 187//187 189//189 186//186
f 185//185 187//187 184//184
f 183//183 185//185 182//182
f 181//181 183//183 180//180
f 179//179 181//181 178//178
f 177//177 179//179 176//176
f 175//175 177//177 174//174
f 173//173 175//175 172//172
f 171//171 173//173 170//170
f 169//169 171//171 168//168
f 159//159 169//169 157//157
f 167//167 159//159 158//158
f 166//166 167//167 165//165
f 164//164 166//166 163//163
f 162//162 164//164 160//160
f 199//199 200//200 201//201
f 202//202 199//199 203//203
f 204//204 202//202 205//205
f 206//206 204//204 207//207
f 208//208 206//206 209//209
f 210//210 208//208 211//211
f 211//211 212//212 210//210
f 209//209 211//211 208//208
f 207//207 209//209 206//206
f 205//205 207//207 204//204
f 203//203 205//205 202//202
f 201//201 203//203 199//199
f 213//213 201//201 200//200
f 214//214 213//213 215//215
f 216//216 217//217 218//218
f 200//200 215//215 213//213
f 219//219 220//220 221//221
f 222//222 223//223 224//224
f 223//223 225//225 226//226
f 225//225 227//227 228//228
f 227//227 219//219 229//229
f 230//230 231//231 232//232
f 220//220 233//233 234//234
f 233//233 218//218 217//217
f 218//218 235//235 216//216
f 235//235 230//230 236//236
f 231//231 237//237 238//238
f 224//224 239//239 222//222
f 226//226 224//224 223//223
f 228//228 226//226 225//225
f 229//229 228//228 227//227
f 221//221 229//229 219//219
f 234//234 221//221 220//220
f 217//217 234//234 233//233
f 237//237 214//214 240//240
f 236//236 216//216 235//235
f 232//232 236//236 230//230
f 238//238 232//232 231//231
f 240//240 238//238 237//237
f 215//215 240//240 214//214
f 241//241 242//242 243//243
f 243//243 244//244 241//241
f 245//245 246//246 247//247
f 248//248 249//249 246//246
f 250//250 251//251 249//249
f 252//252 253//253 251//251
f 254//254 255//255 256//256
f 257//257 258//258 255//255
f 259//259 260//260 258//258
f 261//261 262//262 260//260
f 263//263 264//264 262//262
f 265//265 266//266 267//267
f 268//268 269//269 266//266
f 270//270 271//271 269//269
f 272//272 256//256 253//253
f 249//249 248//248 250//250
f 269//269 268//268 270//270
f 273//273 267//267 264//264
f 266//266 265//265 268//268
f 267//267 273//273 265//265
f 264//264 263//263 273//273
f 262//262 261//261 263//263
f 260//260 259//259 261//261
f 258//258 257//257 259//259
f 255//255 254//254 257//257
f 256//256 272//272 254//254
f 253//253 252//252 272//272
f 251//251 250//250 252//252
f 246//246 245//245 248//248
f 247//247 274//274 245//245
f 275//275 276//276 274//274
f 277//277 278//278 276//276
f 279//279 280//280 278//278
f 278//278 277//277 279//279
f 276//276 275//275 277//277
f 274//274 247//247 275//275
f 281//281 282//282 283//283
f 284//284 285//285 282//282
f 286//286 287//287 285//285
f 288//288 289//289 287//287
f 290//290 291//291 289//289
f 292//292 293//293 291//291
f 294//294 295//295 293//293
f 296//296 297//297 295//295
f 298//298 299//299 297//297
f 300//300 301//301 299//299
f 302//302 303//303 301//301
f 304//304 305//305 303//303
f 306//306 307//307 305//305
f 282//282 281//281 284//284
f 285//285 284//284 286//286
f 287//287 286//286 288//288
f 289//289 288//288 290//290
f 291//291 290//290 292//292
f 293//293 292//292 294//294
f 295//295 294//294 296//296
f 308//308 309//309 307//307
f 297//297 296//296 298//298
f 299//299 298//298 300//300
f 301//301 300//300 302//302
f 307//307 306//306 308//308
f 310//310 311//311 312//312
f 303//303 302//302 304//304
f 305//305 304//304 306//306
f 313//313 314//314 315//315
f 312//312 316//316 310//310
f 314//314 313//313 316//316
f 315//315 283//283 313//313
f 316//316 312//312 314//314
f 283//283 315//315 281//281
